<svg xmlns="http://www.w3.org/2000/svg" version="1.1" xmlns:xlink="http://www.w3.org/1999/xlink" xmlns:svgjs="http://svgjs.dev/svgjs" width="100%" height="100%" viewBox="0 0 1000 600"><rect width="1000" height="600" x="0" y="0" fill="#e2d3f4"/><g><circle r="166.66666666666666" cx="392.666971842448" cy="414.889126281798" fill="#013dc4" transform="matrix(0.5530966303321948,0,0,0.5530966303321948,0,70.52619234842551)"/><path d="M392.4969074212764 489.87378517648176L392.4969074212764 489.87378517648176Q382.4214070583334 489.576196558167 376.12953341396394 487.5781015494821Q369.88017242935376 485.58000654079717 365.5863937936692 483.6244241918715Q361.2926151579846 481.6263291831866 356.70124790398523 481.6263291831866L356.70124790398523 481.6263291831866Q353.3427477830042 481.6263291831866 351.8122920316711 483.15678493451975Q350.281836280338 484.6872406858529 348.75138052900485 487.4505635702043L348.75138052900485 487.4505635702043L342.9271461419872 487.4505635702043L339.86623463932096 436.94552377621153L345.9880576446534 436.94552377621153Q352.1098806499859 458.9670815315047 364.1834760216138 469.51022115179944Q376.29958405300096 480.09587343185353 392.1993188029616 480.09587343185353L392.1993188029616 480.09587343185353Q405.37824332833014 480.09587343185353 413.6256993216253 473.6764618082063Q421.9156679746796 467.21453752479977 421.9156679746796 454.97089151413485L421.9156679746796 454.97089151413485Q421.9156679746796 445.4905683878214 416.98419944260627 440.00643527887775Q412.09524357029215 434.4797895101748 404.1453761953118 430.653650131842Q396.19550882033144 426.8275107535093 387.3103629306475 423.46901063252824L387.3103629306475 423.46901063252824L379.658084173982 420.7056877481768Q362.5254822910029 413.64858622814074 353.04515916468944 405.40113023484565Q343.5223233786167 397.1536742415505 343.5223233786167 381.50901545014534L343.5223233786167 381.50901545014534Q343.5223233786167 361.95319196088883 357.29642514061476 350.899900423483Q371.0705269026128 339.8891215458364 393.43218593598 339.8891215458364L393.43218593598 339.8891215458364Q402.31733182566387 339.8891215458364 407.6739269553298 341.2920393178918Q413.0305220849957 342.65244443018787 416.55907284501376 344.012849542484Q420.0451109452725 345.4157673145394 423.4461237260128 345.4157673145394L423.4461237260128 345.4157673145394Q427.6973897019381 345.4157673145394 428.63266821664166 343.2476216668174Q429.5679467313452 341.1219886788548 429.86553534966 339.8891215458364L429.86553534966 339.8891215458364L435.3496684586036 339.8891215458364L437.5178141063256 384.9100282308856L431.39599110099306 384.9100282308856Q429.2278454532712 374.79201520818333 424.80652883830885 366.84214783320294Q420.3852122233465 358.8922804582226 413.0305220849957 354.13086256518625Q405.6758319466449 349.36944467214994 394.66505306899836 349.36944467214994L394.66505306899836 349.36944467214994Q382.4214070583334 349.36944467214994 374.131438405279 355.49126767748237Q365.88398241198394 361.6130906828148 365.88398241198394 371.4335150872023L365.88398241198394 371.4335150872023Q365.88398241198394 378.44810394747907 370.00771040863145 383.804699077145Q374.131438405279 389.1612942068109 380.4233120496485 392.6898449668289Q386.715185694018 396.21839572684695 392.4969074212764 398.3440287148096L392.4969074212764 398.3440287148096L400.7868760743308 401.10735159916106Q414.8585664546436 405.9963074714752 424.80652883830885 411.6930038792151Q434.7544912219741 417.3471876271958 440.11108635164004 425.46710564121315Q445.46768148130593 433.5445109954712 445.46768148130593 445.4905683878214L445.46768148130593 445.4905683878214Q445.46768148130593 458.9670815315047 438.7506812393439 469.08509455420693Q431.9911683376227 479.16059491715 420.0451109452725 484.6872406858529Q408.14156621268165 490.1713737947965 392.4969074212764 489.87378517648176Z " fill="#e2d3f4" transform="matrix(0.5530966303321948,0,0,0.5530966303321948,0,70.52619234842551)"/><path d="M707.2190450067257 489.8891165719908L707.2190450067257 489.8891165719908Q684.8433562179529 489.8891165719908 670.5773747415132 480.4179255502881Q656.2817957931305 470.94673452858535 649.4743772462817 454.4313451844912Q642.6669586994328 437.91595584039703 642.6669586994328 417.22732295236506L642.6669586994328 417.22732295236506Q642.6669586994328 402.1030147895835 646.3962401642283 388.784152415314Q650.1255216290238 375.4652900410445 657.880059278043 365.461344524371Q665.6641943990048 355.4278015357546 677.9175477833328 349.7746843946758Q690.1709011676606 344.1511647255398 707.2190450067257 344.1511647255398L707.2190450067257 344.1511647255398Q724.2671888457907 344.1511647255398 736.4317498142901 349.7746843946758Q748.5667133108467 355.4278015357546 756.3508484318087 365.461344524371Q764.1349835527706 375.4652900410445 767.864265017566 388.784152415314Q771.5935464823615 402.1030147895835 771.5935464823615 417.22732295236506L771.5935464823615 417.22732295236506Q771.5935464823615 437.91595584039703 764.8749203513411 454.4313451844912Q758.1562942203208 470.94673452858535 743.8903127438809 480.4179255502881Q729.5947337954984 489.8891165719908 707.2190450067257 489.8891165719908ZM707.2190450067257 482.6673334179425L707.2190450067257 482.6673334179425Q717.252587995342 482.6673334179425 724.4743711493903 478.938051953147Q731.7257517753816 475.2087704883516 736.4317498142901 468.8157165487022Q741.1081503812558 462.42266260905285 743.8903127438809 453.9873831053489Q746.6428776345633 445.5817010735877 747.7083866245049 436.1993024677134Q748.7738956144465 426.81690386183914 748.7738956144465 417.22732295236506L748.7738956144465 417.22732295236506Q748.7738956144465 404.23403276946664 746.9684498259344 392.3950439923382Q745.1630040374223 380.58565268715256 740.6937857740563 371.32164396904955Q736.1949700387476 362.02803777900374 728.1148601983573 356.7004928292959Q720.0051528860243 351.37294787958814 707.2190450067257 351.37294787958814L707.2190450067257 351.37294787958814Q694.432937127427 351.37294787958814 686.2344373992655 356.7004928292959Q678.0359376711041 362.02803777900374 673.5667194077381 371.32164396904955Q669.0679036724292 380.58565268715256 667.2624578839171 392.3950439923382Q665.457012095405 404.23403276946664 665.457012095405 417.22732295236506L665.457012095405 417.22732295236506Q665.457012095405 426.81690386183914 666.6409109731179 436.1993024677134Q667.7952123788879 445.5817010735877 670.4589848537419 453.9873831053489Q673.1227573285958 462.42266260905285 677.9175477833328 468.8157165487022Q682.7123382380697 475.2087704883516 689.963718864061 478.938051953147Q697.2150994900521 482.6673334179425 707.2190450067257 482.6673334179425ZM900.7273165688899 487.3437339849082L854.0521033150611 487.3437339849082L854.0521033150611 481.15786234885866Q860.4451572547105 481.15786234885866 863.4345019209354 480.53631543805943Q866.4238465871604 479.8851710553173 867.2525758015593 477.5469707718345Q868.1109024879011 475.2087704883516 868.1109024879011 470.08840784224356L868.1109024879011 470.08840784224356L868.1109024879011 418.29283194230663Q868.1109024879011 411.8997780026573 866.1870668116178 406.77941535654924Q864.2928286072772 401.688650182384 859.9124027597396 398.5809156283878Q855.5319769122021 395.5027785463344 848.3101937581538 395.5027785463344L848.3101937581538 395.5027785463344Q838.4838330731372 395.5027785463344 832.3275589090304 400.8303234960422Q826.1416872729808 406.15786844574995 821.2285069304726 413.1724692961986L821.2285069304726 413.1724692961986L821.2285069304726 404.02685046586686Q826.3488695765806 397.6337965262175 831.6764145262883 393.46055298227975Q837.0039594759962 389.3169069102848 843.2786235278742 387.304278818173Q849.5828850516951 385.26205325411826 857.2486302848857 385.26205325411826L857.2486302848857 385.26205325411826Q871.7513915368681 385.26205325411826 878.884382275088 392.92779848730896Q886.0173730133079 400.6231411924424 886.0173730133079 415.95463165882376L886.0173730133079 415.95463165882376L886.0173730133079 469.6444457631012Q886.0173730133079 474.55762610560953 886.8756996996497 477.0142162768637Q887.7340263859915 479.47080644811786 890.8121634680449 480.29953566251686Q893.8903005500982 481.15786234885866 900.7273165688899 481.15786234885866L900.7273165688899 481.15786234885866L900.7273165688899 487.3437339849082ZM837.0039594759962 487.3437339849082L790.3287462221673 487.3437339849082L790.3287462221673 481.15786234885866Q797.3729445445588 481.15786234885866 800.3622892107836 480.29953566251686Q803.3220364050658 479.47080644811786 804.0915706755791 477.0142162768637Q804.8315074741496 474.55762610560953 804.8315074741496 469.6444457631012L804.8315074741496 469.6444457631012L804.8315074741496 406.15786844574995Q804.8315074741496 400.6231411924424 803.5588161806083 398.7880979319875Q802.2565274151242 396.98265214347543 798.6456358381 396.98265214347543L798.6456358381 396.98265214347543L791.3942552121089 396.98265214347543L791.3942552121089 390.5895982038261L816.5521063635067 386.32756224405983L822.294015920414 386.32756224405983L822.294015920414 402.1030147895835L822.9451603031562 402.1030147895835L822.9451603031562 470.08840784224356Q822.9451603031562 475.2087704883516 823.803486989498 477.5469707718345Q824.6322162038969 479.8851710553173 827.7399507578931 480.53631543805943Q830.8180878399465 481.15786234885866 837.0039594759962 481.15786234885866L837.0039594759962 481.15786234885866L837.0039594759962 487.3437339849082ZM961.4613289955588 487.3437339849082L914.134971358988 487.3437339849082L914.134971358988 481.15786234885866Q921.1791696813793 481.15786234885866 924.2573067634328 480.29953566251686Q927.3650413174289 479.47080644811786 928.1049781159995 477.0142162768637Q928.84491491457 474.55762610560953 928.84491491457 469.6444457631012L928.84491491457 469.6444457631012L928.84491491457 359.68983749552086Q928.84491491457 354.1551102422133 927.5722236210287 352.3496644537012Q926.2995323274874 350.54421866518913 922.4518609749207 350.54421866518913L922.4518609749207 350.54421866518913L915.2004803489294 350.54421866518913L915.2004803489294 344.1511647255398L941.0094758830694 339.88912876577353L946.9585677435765 339.88912876577353L946.9585677435765 469.6444457631012Q946.9585677435765 474.55762610560953 947.8168944299183 477.0142162768637Q948.6752211162601 479.47080644811786 951.7533581983134 480.29953566251686Q954.8610927523098 481.15786234885866 961.4613289955588 481.15786234885866L961.4613289955588 481.15786234885866L961.4613289955588 487.3437339849082ZM1022.4025237258275 487.3437339849082L975.1057635611994 487.3437339849082L975.1057635611994 481.15786234885866Q981.9131821080482 481.15786234885866 984.9913191901016 480.29953566251686Q988.0990537440978 479.47080644811786 988.8389905426684 477.0142162768637Q989.5789273412389 474.55762610560953 989.5789273412389 469.6444457631012L989.5789273412389 469.6444457631012L989.5789273412389 406.15786844574995Q989.5789273412389 400.6231411924424 988.3062360476976 398.7880979319875Q987.0335447541563 396.98265214347543 983.3930557051892 396.98265214347543L983.3930557051892 396.98265214347543L975.9344927755983 396.98265214347543L975.9344927755983 390.5895982038261L1001.9506706133382 386.32756224405983L1007.6925801702454 386.32756224405983L1007.6925801702454 469.6444457631012Q1007.6925801702454 474.7648084092093 1008.5509068565872 477.2213985804634Q1009.409233542929 479.6779887517175 1012.4873706249824 480.4179255502881Q1015.5951051789787 481.15786234885866 1022.4025237258275 481.15786234885866L1022.4025237258275 481.15786234885866L1022.4025237258275 487.3437339849082ZM998.1029992607714 367.5923625042541L998.1029992607714 367.5923625042541Q992.7754543110635 367.5923625042541 989.5789273412389 364.1590557588869Q986.3824003714142 360.7553464854624 986.3824003714142 356.0789459184967L986.3824003714142 356.0789459184967Q986.3824003714142 350.95858327238864 989.5789273412389 347.55487399896424Q992.7754543110635 344.1511647255398 998.1029992607714 344.1511647255398L998.1029992607714 344.1511647255398Q1001.7434883097383 344.1511647255398 1004.4072607845923 345.74942821045215Q1007.0710332594462 347.34769169536446 1008.4325169688159 350.01146417021835Q1009.8235981501285 352.67523664507223 1009.8235981501285 356.0789459184967L1009.8235981501285 356.0789459184967Q1009.8235981501285 360.7553464854624 1006.5382787644753 364.1590557588869Q1003.2233619068794 367.5923625042541 998.1029992607714 367.5923625042541ZM1148.7837289216736 487.3437339849082L1102.1085156678446 487.3437339849082L1102.1085156678446 481.15786234885866Q1108.5015696074938 481.15786234885866 1111.4909142737188 480.53631543805943Q1114.4506614680008 479.8851710553173 1115.3089881543428 477.5469707718345Q1116.1673148406849 475.2087704883516 1116.1673148406849 470.08840784224356L1116.1673148406849 470.08840784224356L1116.1673148406849 418.29283194230663Q1116.1673148406849 411.8997780026573 1114.2434791644014 406.77941535654924Q1112.319643488118 401.688650182384 1107.9688151125233 398.5809156283878Q1103.5883892649858 395.5027785463344 1096.3370086389946 395.5027785463344L1096.3370086389946 395.5027785463344Q1086.5402454259206 395.5027785463344 1080.3543737898713 400.8303234960422Q1074.1980996257644 406.15786844574995 1069.284919283256 413.1724692961986L1069.284919283256 413.1724692961986L1069.284919283256 404.02685046586686Q1074.4052819293643 397.6337965262175 1079.732826879072 393.46055298227975Q1085.0603718287798 389.3169069102848 1091.3350358806579 387.304278818173Q1097.6392974044784 385.26205325411826 1105.3050426376694 385.26205325411826L1105.3050426376694 385.26205325411826Q1119.7782064177086 385.26205325411826 1126.9407946278716 392.92779848730896Q1134.0737853660912 400.6231411924424 1134.0737853660912 415.95463165882376L1134.0737853660912 415.95463165882376L1134.0737853660912 469.6444457631012Q1134.0737853660912 474.55762610560953 1134.9321120524332 477.0142162768637Q1135.760841266832 479.47080644811786 1138.8685758208285 480.29953566251686Q1141.9467129028817 481.15786234885866 1148.7837289216736 481.15786234885866L1148.7837289216736 481.15786234885866L1148.7837289216736 487.3437339849082ZM1085.0603718287798 487.3437339849082L1038.3851585749508 487.3437339849082L1038.3851585749508 481.15786234885866Q1045.4293568973421 481.15786234885866 1048.3891040916242 480.29953566251686Q1051.3784487578491 479.47080644811786 1052.1183855564195 477.0142162768637Q1052.8879198269333 474.55762610560953 1052.8879198269333 469.6444457631012L1052.8879198269333 469.6444457631012L1052.8879198269333 406.15786844574995Q1052.8879198269333 400.6231411924424 1051.585631061449 398.7880979319875Q1050.3129397679077 396.98265214347543 1046.7020481908835 396.98265214347543L1046.7020481908835 396.98265214347543L1039.4506675648922 396.98265214347543L1039.4506675648922 390.5895982038261L1064.6085187162903 386.32756224405983L1070.3504282731974 386.32756224405983L1070.3504282731974 402.1030147895835L1071.0015726559395 402.1030147895835L1071.0015726559395 470.08840784224356Q1071.0015726559395 475.2087704883516 1071.8303018703386 477.5469707718345Q1072.6886285566802 479.8851710553173 1075.7963631106768 480.53631543805943Q1078.87450019273 481.15786234885866 1085.0603718287798 481.15786234885866L1085.0603718287798 481.15786234885866L1085.0603718287798 487.3437339849082ZM1211.411979552683 489.6819342683911L1211.411979552683 489.6819342683911Q1188.207561549511 489.6819342683911 1177.2268994587243 476.15588959052184Q1166.2462373679377 462.62984491265263 1166.2462373679377 438.53750275119626L1166.2462373679377 438.53750275119626Q1166.2462373679377 421.9333209912736 1171.2482101262744 409.9759423263739Q1176.2501828846116 398.048161133417 1186.3725182890562 391.65510719376766Q1196.4948536935012 385.26205325411826 1211.6487593282254 385.26205325411826L1211.6487593282254 385.26205325411826Q1225.0564141183236 385.26205325411826 1233.3733037342563 389.8496614052556Q1241.690193350189 394.43726955639283 1246.1594116135548 401.9846249018122Q1250.6286298769205 409.5615777191744 1252.226893361833 418.50001424590636Q1253.8251568467454 427.46804824458115 1253.8251568467454 436.40648477131316L1253.8251568467454 436.40648477131316L1253.8251568467454 438.3303204475965L1182.2288722170615 438.3303204475965L1182.436054520661 431.5229019007477L1234.0244481169984 431.5229019007477Q1234.0244481169984 418.73679402144893 1231.9822225529438 409.8871499105454Q1229.9695944608316 401.0375057996419 1225.1748040060947 396.44989764850465Q1220.3800135513575 391.8622894973674 1211.8559416318253 391.8622894973674L1211.8559416318253 391.8622894973674Q1202.8879076331505 391.8622894973674 1197.2643879640145 396.7754698398757Q1191.6112708229357 401.688650182384 1188.9474983480818 411.1598412040868Q1186.283725873228 420.6310322257895 1186.076543569628 434.4826490950298L1186.076543569628 434.4826490950298Q1186.076543569628 443.6578653973043 1187.2308449753982 451.97475501323703Q1188.4147438531108 460.29164462916975 1191.700063238764 466.8918808724189Q1195.01498009636 473.49211711566795 1201.0824618446386 477.3397884682347Q1207.1499435929168 481.15786234885866 1216.9763042779332 481.15786234885866L1216.9763042779332 481.15786234885866Q1226.121923108265 481.15786234885866 1232.100612440715 477.8725429632055Q1238.049704301222 474.55762610560953 1241.690193350189 469.23008115590176Q1245.3010849272132 463.90253620619393 1247.2249206034962 458.3678089528864L1247.2249206034962 458.3678089528864L1252.9668301604038 460.91319153996903Q1250.6286298769205 468.1645721659602 1246.0410217257836 474.7648084092093Q1241.4830110465891 481.3650446524583 1233.2549138464851 485.53828819639614Q1225.0564141183236 489.6819342683911 1211.411979552683 489.6819342683911ZM1293.2489894745831 489.2675696611916L1293.2489894745831 489.2675696611916Q1288.3654066040176 489.2675696611916 1284.8433074428217 485.7454704999959Q1281.3212082816262 482.22337133880023 1281.3212082816262 477.3397884682347L1281.3212082816262 477.3397884682347Q1281.3212082816262 472.4266081257264 1284.8433074428217 468.9045089645307Q1288.3654066040176 465.382409803335 1293.2489894745831 465.382409803335L1293.2489894745831 465.382409803335Q1298.1621698170916 465.382409803335 1301.684268978287 468.9045089645307Q1305.17677066754 472.4266081257264 1305.17677066754 477.3397884682347L1305.17677066754 477.3397884682347Q1305.17677066754 482.22337133880023 1301.684268978287 485.7454704999959Q1298.1621698170916 489.2675696611916 1293.2489894745831 489.2675696611916ZM1414.3026497207215 487.3437339849082L1354.190184204852 487.3437339849082L1354.190184204852 481.15786234885866Q1364.0165448898683 481.15786234885866 1368.2785808496346 480.29953566251686Q1372.540616809401 479.47080644811786 1373.4877359115712 476.80703397326397Q1374.4348550137415 474.14326149841 1374.4348550137415 468.37175446955996L1374.4348550137415 468.37175446955996L1374.4348550137415 353.7407456350138L1362.9510358999269 353.7407456350138Q1351.4376193141693 353.7407456350138 1345.577319869491 356.0789459184967Q1339.7170204248123 358.41714620197956 1337.0532479499584 364.2774456466581Q1334.3894754751045 370.1377450913367 1332.672822102421 381.2071995979518L1332.672822102421 381.2071995979518L1327.1380948491133 381.2071995979518L1327.1380948491133 346.6965473126224L1441.3547390764597 346.6965473126224L1441.3547390764597 381.2071995979518L1435.8200118231525 381.2071995979518Q1434.103358450469 370.1377450913367 1431.4395859756146 364.2774456466581Q1428.7758135007612 358.41714620197956 1423.0339039438536 356.0789459184967Q1417.2919943869465 353.7407456350138 1405.778577801189 353.7407456350138L1405.778577801189 353.7407456350138L1394.057978911832 353.7407456350138L1394.057978911832 468.37175446955996Q1394.057978911832 474.14326149841 1395.1234879017734 476.80703397326397Q1396.1889968917149 479.47080644811786 1400.5398252673094 480.29953566251686Q1404.9202511148474 481.15786234885866 1414.3026497207215 481.15786234885866L1414.3026497207215 481.15786234885866L1414.3026497207215 487.3437339849082ZM1519.9952220285354 487.3437339849082L1508.0674408355785 487.3437339849082L1464.7959368551742 364.60301783802913Q1463.1088809544335 359.68983749552086 1461.2738376939783 357.1444549084382Q1459.4683919054664 354.5694748494128 1456.3902548234132 353.7407456350138Q1453.2825202694166 352.882418948672 1447.5406107125095 352.882418948672L1447.5406107125095 352.882418948672L1447.5406107125095 346.6965473126224L1498.6850422297043 346.6965473126224L1498.6850422297043 352.882418948672L1488.2371346338882 352.882418948672Q1484.6262430568645 352.882418948672 1483.7679163705225 354.6878647371841Q1482.909589684181 356.4933105256962 1484.1822809777218 360.34098187826294L1484.1822809777218 360.34098187826294L1519.788039724936 463.25139182345185L1520.4095866357352 463.4881715989944L1555.808163079349 360.7553464854624Q1556.8736720692905 356.7004928292959 1556.2225276865483 354.8062546249554Q1555.5713833038067 352.882418948672 1551.5461271195827 352.882418948672L1551.5461271195827 352.882418948672L1541.305401827367 352.882418948672L1541.305401827367 346.6965473126224L1582.0019257487456 346.6965473126224L1582.0019257487456 352.882418948672Q1574.7505451227544 352.882418948672 1571.55401815293 355.0134369285551Q1568.3574911831051 357.1444549084382 1565.8121085960229 363.9518734552871L1565.8121085960229 363.9518734552871L1519.9952220285354 487.3437339849082Z " fill="#013dc4" transform="matrix(0.5530966303321948,0,0,0.5530966303321948,0,70.52619234842551)"/></g></svg>